PathFileType	4	(X/Y/Z)	13_2_8_p0_0-313.trc
DataRate	CameraRate	NumFrames	NumMarkers	Units	OrigDataRate	OrigDataStartFrame	OrigNumFrames
59.0	59.0	5	27	m	59.0	235	314
Frame#	Time	RHip			RKnee			RAnkle			RBigToe			RSmallToe			RHeel			LHip			LKnee			LAnkle			LBigToe			LSmallToe			LHeel			Neck			Head			Nose			RShoulder			RElbow			RWrist			RThumb			RIndex			RPinky			LShoulder			LElbow			LWrist			LThumb			LIndex			LPinky			
		X1	Y1	Z1	X2	Y2	Z2	X3	Y3	Z3	X4	Y4	Z4	X5	Y5	Z5	X6	Y6	Z6	X7	Y7	Z7	X8	Y8	Z8	X9	Y9	Z9	X10	Y10	Z10	X11	Y11	Z11	X12	Y12	Z12	X13	Y13	Z13	X14	Y14	Z14	X15	Y15	Z15	X16	Y16	Z16	X17	Y17	Z17	X18	Y18	Z18	X19	Y19	Z19	X20	Y20	Z20	X21	Y21	Z21	X22	Y22	Z22	X23	Y23	Z23	X24	Y24	Z24	X25	Y25	Z25	X26	Y26	Z26	X27	Y27	Z27	
235	3.983050847457627	0.31022368895910923	0.8131067048513048	0.6591853871987439	0.2646201957638072	0.9630511919451952	1.0416045882901321	0.27558850451887285	1.2234091732378312	1.3893098340435945	0.26056458477938466	1.0981484211771848	1.457036828917842	0.3210410432455947	1.0987824799681862	1.4458386740039146	0.2708821900501013	1.3368299637062522	1.4444685922226193	0.11103809428085248	0.800688725136893	0.6576846810622097	0.12255829363738627	0.9894223005867394	1.0492724056529614	0.11813205277920652	1.2287407770874332	1.3952074841301043	0.12426721951016696	1.0874199147086514	1.457157575736691	0.08126860476029073	1.0724085070955325	1.4363567241641804	0.12307285259359144	1.3500629291227773	1.436111688464877	0.16407887845998234	0.6750077569065348	0.13813890233884768	0.1635731525270081	0.5126620691229633	-0.05283322872326916	0.156609377936912	0.4807680949324326	0.07541924814552481	0.3119621406638707	0.6732532681670121	0.22606604264497585	0.3829693625004215	0.8172224841608408	0.470079117592872	0.26652287359184534	0.6393865527163031	0.5572087204729435	0.21123173544788054	0.5607465233923774	0.5773623990525045	0.1919910352768906	0.5760942302642901	0.5876181089023451	0.20705189172087132	0.5970376215096381	0.6250139189762292	0.032271342084479494	0.7294618126982634	0.21086946221989653	0.035430442425840786	0.7844406980609838	0.4567194094359665	0.14917826981131851	0.6249233191005862	0.5722291553986747	0.20399531803674884	0.5452913689243399	0.5723593569292497	0.20510747441014526	0.5483219610906266	0.586312169940637	0.20788726559284176	0.5786707768022327	0.6194288189504441
236	4.0	0.30950319943212534	0.8103224803716845	0.6553503959117972	0.2686578168733492	0.9766127840791647	1.0386048539103114	0.2790104543243628	1.2400596458160669	1.3918452778106627	0.2604092303760289	1.098271306196251	1.4572761634773401	0.32454796774190553	1.1153090834955552	1.4485737604575832	0.266062877156928	1.3570301695818376	1.448441588530055	0.1109670372946818	0.8002963318671125	0.6576045505432281	0.12250589378963053	0.9893039904139914	1.0492330189020862	0.11799254095057343	1.2290042697036572	1.3953242314982517	0.12429815324020277	1.0875120610267277	1.45727444443257	0.08126049179593012	1.072371481941424	1.436372494180437	0.12284954122088175	1.34963656070965	1.436065596768963	0.16399576163808954	0.6748216184389152	0.13798984440378634	0.16365252464971067	0.5126391364701742	-0.05293781559053749	0.1561706607657837	0.47825426065038057	0.06939790904849215	0.31165992466823306	0.6721722549119551	0.2226541858926596	0.3828832868980928	0.8173115806327903	0.4699598635800305	0.2666230052161892	0.639331532942317	0.5570627049808852	0.21766779759703395	0.5724122120480537	0.5731517814655234	0.19560240989111724	0.5768360289008495	0.5875133243874138	0.2112503583107614	0.5969538981968215	0.6247795863506461	0.03227846653390146	0.7294416904367856	0.21074051992266885	0.032909070700531236	0.7727167368744647	0.4584735554093341	0.1494734873293226	0.624900388819055	0.572153021600099	0.20449912756525102	0.5454546815319785	0.5754774690181349	0.20931968617918062	0.5488236101723063	0.5863171115403948	0.21194130946235265	0.5782348961719748	0.6191595287175853
237	4.016949152542373	0.3100139662941062	0.808753863896433	0.6513838028927221	0.26940215731992484	0.9745116644837569	1.0345674530336793	0.27902521321444074	1.2401519620855523	1.3917277688409662	0.2595270276572993	1.1008433346122997	1.4612489583625299	0.32095767850336376	1.100033881879992	1.4460574231763543	0.26606060494752526	1.3572641647208867	1.4484899075329996	0.1106307762942317	0.79956296236333	0.6542198517450691	0.12333628527289424	0.987631333756	1.0453201903179488	0.11757781548324685	1.2291405727092308	1.3956499195995018	0.12423100931279642	1.087547054630018	1.4573849386583582	0.08115429195386718	1.07249831078541	1.4364569935139209	0.1227508745565397	1.350118573246951	1.4362509008566973	0.16396702336300698	0.6726626012139347	0.13133172005614835	0.16341378727217223	0.5107795484102293	-0.05599517429884549	0.15616988509112437	0.4783105754071925	0.06916480199152342	0.31188267260106994	0.6713465315712077	0.2189974089550119	0.38320137482162875	0.8163016954162621	0.46636397566223403	0.26651358746943615	0.6391690863418265	0.5569431566445903	0.21505159859416093	0.560472364816536	0.5732899437460357	0.19556453219029973	0.5771510292464266	0.5879060911020942	0.21115714604397273	0.5963513520559357	0.6244165370818207	0.032281955319786435	0.7292208972668444	0.2105058909756087	0.03288845432431448	0.7725360946860338	0.4583064496654597	0.14959405547647647	0.625104929212075	0.5718581833263916	0.20866302404626458	0.5438570321353332	0.5723494227328094	0.20991476680733087	0.5510819101968617	0.5895479115777148	0.21259397364514135	0.5766318232318746	0.6165532724747352
238	4.033898305084746	0.31346776204785753	0.7957719694694914	0.6562665523966744	0.2687161225121097	0.976805089196096	1.0384653407902311	0.2789958178302798	1.2403467814392743	1.3916436817547158	0.26038656455836046	1.0982018350103406	1.4572361811026457	0.31982726497439157	1.1142293569019441	1.4486142874308159	0.26498550103718627	1.3529185990301436	1.442874537425124	0.11058388665687788	0.7996900639379526	0.6542256195034404	0.12333006719845219	0.9874678977594488	1.0453690746449682	0.11768084010089391	1.229583711117112	1.3956395265083792	0.12425163170800749	1.0875471738032707	1.4573376505479443	0.0812022915226155	1.0723293897533999	1.436414001663472	0.1227641829998666	1.3503098966596168	1.4362339611347767	0.1686113718406935	0.6594538405001675	0.13429017627981757	0.1659537164673952	0.5201111869620398	-0.06633076943501	0.15619669859797852	0.47842439666264214	0.069012033276559	0.3119127799687422	0.6713838209214957	0.21892744319099963	0.3795203714007096	0.8027178524835563	0.46835636655262863	0.26600895083206866	0.6349164522442768	0.546339588943798	0.21843466597336084	0.5612760882604034	0.57297705750941	0.19600149474398001	0.5755629872678523	0.5845301785698167	0.2119611779958685	0.5821418296014342	0.61820698810666	0.0322830711242569	0.7290661445560022	0.2105549606702215	0.032855102529772535	0.7712543874039883	0.4542480342620424	0.14516074587107738	0.6375644487235534	0.5665786730650553	0.20466782752131726	0.5544289035886725	0.5725041034324106	0.20596508406874992	0.5590544528371436	0.5844155630743966	0.20966644683189162	0.5969707642887073	0.6172991647220311
239	4.0508474576271185	0.313430432290656	0.7958233733913515	0.6565610788255491	0.2694998822323729	0.9750735828907494	1.034634429149028	0.27552518793338815	1.2234308306381554	1.3893510448347137	0.25941584619593416	1.0999655277228149	1.4613138375234684	0.3198193676571507	1.1141681538751866	1.4487013787827188	0.2649023440853739	1.3527226227448002	1.4430229714671685	0.11039351279610896	0.7997097845270646	0.6543246089071788	0.12338552153138249	0.9876534293119446	1.045354500580395	0.12047092534186593	1.2457343257161368	1.3979127680796237	0.12422445521019586	1.0878888181048652	1.4571456300718122	0.08123349761315708	1.0726169038366988	1.4361503809597786	0.12520628250246613	1.3646773578797453	1.433414041021107	0.16866505068279636	0.6593173965665837	0.13421932072138293	0.1660562871822571	0.5200555538741202	-0.06643652960885857	0.16003364515416596	0.48064400159953186	0.06816355325656344	0.311803155557186	0.6722839021272968	0.2225757541294668	0.37916969456496086	0.8035461004556986	0.47191170463418136	0.2655654734345425	0.6356917946920775	0.5494665171669315	0.2178034063528482	0.5569663972292546	0.564715614201708	0.19559389707137276	0.5751716334411583	0.5837932216289293	0.2077332870189242	0.580932621974028	0.6184365831279037	0.03229476595081063	0.7289793478638251	0.21046079722985245	0.03253478609732924	0.7690688342556652	0.45148158531435645	0.14943900302620172	0.6365120697069274	0.5599467509414938	0.2092492637602409	0.5522002728459572	0.5706782237893665	0.21889166475674846	0.5471486585255837	0.5884040664680368	0.21378954683934034	0.5872104062955613	0.6148990705335624
